<svg width="1465" height="511" viewBox="0 0 1465 511" fill="none" xmlns="http://www.w3.org/2000/svg">
<rect width="1465" height="511" fill="url(#paint0_linear_504_1199)" fill-opacity="0.6"/>
<path d="M92.264 181.316C86.756 181.316 83.084 178.256 83.084 172.952C83.084 167.92 86.892 164.52 92.264 164.52C97.636 164.52 101.512 167.92 101.512 172.952C101.512 178.256 97.772 181.316 92.264 181.316ZM74.924 172.952C74.924 182.676 83.288 189.476 92.264 189.476C101.24 189.476 109.672 182.676 109.672 172.952C109.672 163.704 101.308 156.36 92.264 156.36H91.244L100.764 139.564H91.38L76.556 165.812H76.692C75.536 167.988 74.924 170.368 74.924 172.952ZM157.454 133.784V162.072H146.574V167.172H157.454V169.144H165.886V133.784H157.454ZM114.75 155.272L115.634 161.256C119.986 161.256 124.678 161.256 129.574 161.12V169.212H138.074V160.78C143.446 160.508 148.886 160.032 154.19 159.216L153.782 154.048C140.862 155.272 126.514 155.272 114.75 155.272ZM118.898 143.848C118.898 149.424 124.95 152.892 134.13 152.892C143.174 152.892 149.294 149.424 149.294 143.848C149.294 138.204 143.174 134.668 134.13 134.668C124.95 134.668 118.898 138.204 118.898 143.848ZM123.522 176.692H157.522V179.752H123.59V194.304H167.382V188.456H131.886V185.124H165.886V171.048H123.522V176.692ZM126.786 143.848C126.786 141.536 129.574 140.244 134.13 140.244C138.55 140.244 141.406 141.536 141.406 143.848C141.406 146.16 138.55 147.384 134.13 147.384C129.574 147.384 126.786 146.16 126.786 143.848ZM224.876 143.644V150.376H232.288V155.068H224.876V161.8H232.288V171.048H240.788V133.784H232.288V143.644H224.876ZM189.924 161.8L190.672 168.736C200.396 168.736 213.588 168.464 224.944 166.56L224.468 160.372C222.564 160.576 220.66 160.78 218.62 160.916V144.596H223.516V137.796H191.42V144.596H196.316V161.8H189.924ZM199.376 183.424C199.376 190.564 207.264 194.78 220.184 194.78C233.104 194.78 240.992 190.564 240.992 183.424C240.992 176.148 233.104 172 220.184 172C207.264 172 199.376 176.148 199.376 183.424ZM204.476 161.664V144.596H210.528V161.392L204.476 161.664ZM207.74 183.424C207.74 180.024 212.024 178.46 220.184 178.46C228.344 178.46 232.56 180.024 232.56 183.424C232.56 186.688 228.344 188.32 220.184 188.32C212.024 188.32 207.74 186.688 207.74 183.424ZM288.389 133.648V194.712H296.889V164.112H305.457V157.176H296.889V133.648H288.389ZM248.745 177.644L253.437 184.104C273.633 173.904 280.705 158.264 280.705 139.972H252.009V146.84H272.137C270.573 160.44 263.025 170.3 248.745 177.644ZM351.427 133.784V169.28H339.867V175.06H351.427V179.888H359.859V133.784H351.427ZM308.519 160.848L309.471 167.58C314.095 167.58 319.331 167.512 324.771 167.308V178.324H333.203V166.832C338.099 166.424 343.063 165.88 347.891 165.064L347.279 159.012C334.495 160.644 319.603 160.78 308.519 160.848ZM312.939 146.772C312.939 153.232 319.195 157.516 328.103 157.516C336.943 157.516 343.267 153.232 343.267 146.772C343.267 140.312 336.943 135.892 328.103 135.892C319.195 135.892 312.939 140.312 312.939 146.772ZM316.203 193.624H361.219V186.824H324.635V175.536H316.203V193.624ZM320.963 146.772C320.963 143.712 323.887 142.08 328.103 142.08C332.319 142.08 335.243 143.712 335.243 146.772C335.243 149.832 332.319 151.464 328.103 151.464C323.887 151.464 320.963 149.832 320.963 146.772ZM383.76 180.772V187.64H438.976V180.772H415.448V168.192H432.856V138.34H389.608V168.192H407.084V180.772H383.76ZM397.972 161.46V145.004H424.56V161.46H397.972ZM462.914 137.864C453.326 137.864 446.118 144.052 446.118 152.756C446.118 161.596 453.326 167.784 462.914 167.784C472.502 167.784 479.642 161.596 479.642 152.756C479.642 144.052 472.502 137.864 462.914 137.864ZM443.534 175.536L444.554 182.404C455.162 182.404 469.51 182.268 482.77 179.616L482.158 173.496C469.306 175.4 454.278 175.536 443.534 175.536ZM454.414 152.756C454.414 147.928 458.018 145.072 462.914 145.072C467.742 145.072 471.346 147.928 471.346 152.756C471.346 157.652 467.742 160.576 462.914 160.576C458.018 160.576 454.414 157.652 454.414 152.756ZM485.558 194.848H493.99V133.648H485.558V194.848ZM508.272 139.02V145.752H543.904C543.904 152.892 543.836 161.46 541.592 173.02L549.956 174.04C552.404 161.052 552.404 152.484 552.404 144.868V139.02H508.272ZM502.628 187.3H557.776V180.432H530.848V159.42H522.348V180.432H502.628V187.3ZM575.865 138.476V147.588C575.865 158.944 571.037 170.572 560.905 175.332L565.937 182.2C572.737 178.8 577.497 172.272 580.149 164.384C582.665 171.728 587.085 177.78 593.409 181.044L598.509 174.312C588.921 169.62 584.365 158.536 584.365 147.588V138.476H575.865ZM601.229 194.78H609.729V164.384H618.637V157.312H609.729V133.784H601.229V194.78ZM651.515 136.98V142.488C651.515 150.92 647.027 159.148 636.759 162.548L641.111 169.348C648.387 166.832 653.283 161.868 656.003 155.612C658.587 161.052 662.939 165.268 669.399 167.512L673.819 160.848C664.231 157.788 660.083 150.308 660.083 142.148V136.98H651.515ZM646.755 182.88C646.755 190.36 654.711 194.78 667.563 194.78C680.415 194.78 688.371 190.36 688.371 182.88C688.371 175.468 680.415 171.048 667.563 171.048C654.711 171.048 646.755 175.468 646.755 182.88ZM655.119 182.88C655.119 179.344 659.471 177.644 667.563 177.644C675.655 177.644 679.939 179.344 679.939 182.88C679.939 186.416 675.655 188.184 667.563 188.184C659.471 188.184 655.119 186.416 655.119 182.88ZM668.379 151.872H679.667V169.484H688.167V133.784H679.667V145.004H668.379V151.872ZM729.852 148.404V155.34H739.1V170.028H747.6V133.784H739.1V148.404H729.852ZM696.396 162.888L700.612 169.552C707.82 167.172 712.648 162.276 715.3 156.156C717.952 161.664 722.508 166.152 729.24 168.396L733.32 161.732C723.868 158.468 719.516 151.056 719.448 143.916H731.416V137.184H698.708V143.916H710.88C710.812 151.6 706.256 159.556 696.396 162.888ZM706.188 179.548H739.1V194.78H747.6V172.816H706.188V179.548ZM771.774 161.732V168.6H826.854V161.732H771.774ZM778.03 183.56C778.03 190.7 785.986 194.712 799.11 194.712C812.302 194.712 820.258 190.7 820.258 183.56C820.258 176.42 812.302 172.34 799.11 172.34C785.986 172.34 778.03 176.42 778.03 183.56ZM778.438 157.38H820.598V150.716H786.87V142.216H820.258V135.416H778.438V157.38ZM786.53 183.56C786.53 180.296 790.882 178.732 799.11 178.732C807.406 178.732 811.69 180.296 811.69 183.56C811.69 186.756 807.406 188.252 799.11 188.252C790.882 188.252 786.53 186.756 786.53 183.56ZM831.139 166.492V173.224H886.355V166.492H862.895V161.936H880.711V155.476H846.371V151.328H879.623V134.94H837.939V141.4H871.259V145.344H838.007V161.936H854.531V166.492H831.139ZM837.259 183.424H871.531V194.508H879.963V176.76H837.259V183.424ZM929.877 133.784V194.78H938.241V164.724H947.149V157.72H938.241V133.784H929.877ZM890.301 149.628H925.797V142.896H912.401V134.736H903.833V142.896H890.301V149.628ZM892.817 167.648C892.817 176.148 899.345 182.132 908.117 182.132C916.957 182.132 923.553 176.148 923.553 167.648C923.553 159.148 916.957 153.164 908.117 153.164C899.345 153.164 892.817 159.148 892.817 167.648ZM900.841 167.648C900.841 162.956 903.969 160.032 908.117 160.032C912.401 160.032 915.529 162.956 915.529 167.648C915.529 172.34 912.401 175.264 908.117 175.264C903.969 175.264 900.841 172.34 900.841 167.648ZM955.65 139.02V145.752H991.282C991.282 152.892 991.214 161.46 988.97 173.02L997.334 174.04C999.782 161.052 999.782 152.484 999.782 144.868V139.02H955.65ZM950.006 187.3H1005.15V180.432H978.226V159.42H969.726V180.432H950.006V187.3ZM97.228 223.552V226.476C97.228 233.752 89.952 241.708 76.216 243.544L79.548 250.276C90.088 248.644 97.84 243.748 101.716 237.084C105.66 243.748 113.412 248.644 123.952 250.276L127.216 243.544C113.548 241.708 106.204 233.684 106.204 226.476V223.552H97.228ZM74.108 261.836H97.228V282.78H105.66V261.836H129.256V254.9H74.108V261.836ZM140.546 222.804V243.816H182.57V237.016H148.978V222.804H140.546ZM133.61 255.988H188.69V249.188H133.61V255.988ZM139.866 271.288C139.866 278.428 147.822 282.644 160.946 282.644C174.138 282.644 182.094 278.428 182.094 271.288C182.094 264.08 174.138 260 160.946 260C147.822 260 139.866 264.08 139.866 271.288ZM148.366 271.288C148.366 267.956 152.718 266.392 160.946 266.392C169.242 266.392 173.526 267.956 173.526 271.288C173.526 274.484 169.242 276.116 160.946 276.116C152.718 276.116 148.366 274.484 148.366 271.288ZM232.891 221.716V282.712H241.323V252.724H249.415V245.72H241.323V221.716H232.891ZM191.819 265.1L198.415 269.86C209.227 257.824 210.995 244.632 210.995 227.972H194.471V234.84H202.903C202.427 247.08 200.047 256.056 191.819 265.1ZM208.887 269.044L215.551 273.736C226.227 260.476 227.723 245.448 227.723 227.972H213.035V234.84H219.835C219.359 248.372 217.115 258.844 208.887 269.044ZM254.449 227.632V234.568H267.301V238.444C267.301 248.78 262.133 260.068 252.069 264.624L256.897 271.288C264.037 267.956 269.001 261.292 271.721 253.268C274.509 260.68 279.473 266.732 286.477 269.792L291.101 263.06C281.037 258.844 275.937 248.372 275.937 238.444V234.568H288.653V227.632H254.449ZM294.501 282.78H303.001V221.784H294.501V282.78ZM327.446 251.976V258.708H351.518V269.112H360.018V258.708H382.662V251.976H327.446ZM333.906 281.624H376.542V274.824H342.338V263.944H333.906V281.624ZM334.314 246.876H375.658V224.368H334.314V246.876ZM342.61 240.212V230.964H367.294V240.212H342.61ZM431.216 221.716V282.712H439.308V221.716H431.216ZM385.792 265.032L390.824 271.22C396.468 267.752 400.072 261.7 402.112 254.56C404.22 261.088 407.756 266.528 413.196 269.724L418.16 263.672C409.32 258.504 406.192 248.236 406.192 238.104V234.772H415.304V227.972H388.036V234.772H397.964V238.104C397.964 248.508 394.7 259.456 385.792 265.032ZM410.884 249.528H418.908V279.856H426.796V222.804H418.908V242.66H410.884V249.528ZM448.421 227.632V234.568H461.273V238.444C461.273 248.78 456.105 260.068 446.041 264.624L450.869 271.288C458.009 267.956 462.973 261.292 465.693 253.268C468.481 260.68 473.445 266.732 480.449 269.792L485.073 263.06C475.009 258.844 469.909 248.372 469.909 238.444V234.568H482.625V227.632H448.421ZM488.473 282.78H496.973V221.784H488.473V282.78ZM523.767 225.388C514.383 225.388 507.311 231.576 507.311 240.28C507.311 247.76 512.411 253.336 519.755 254.832V263.536C514.519 263.672 509.555 263.672 505.203 263.672L506.223 270.54C516.491 270.608 530.091 270.54 542.739 268.16L542.127 262.04C537.639 262.652 532.879 262.992 528.119 263.264V254.764C535.327 253.2 540.291 247.624 540.291 240.28C540.291 231.576 533.219 225.388 523.767 225.388ZM515.471 240.28C515.471 235.384 519.007 232.596 523.767 232.596C528.595 232.596 532.131 235.384 532.131 240.28C532.131 245.176 528.595 248.1 523.767 248.1C519.007 248.1 515.471 245.176 515.471 240.28ZM545.391 282.712H553.755V252.792H561.983V245.788H553.755V221.716H545.391V282.712ZM620.361 221.784V258.504H628.793V243.884H636.953V236.88H628.793V221.784H620.361ZM580.989 233.956H616.825V227.292H603.089V221.308H594.657V227.292H580.989V233.956ZM583.913 246.876C583.913 253.472 590.033 257.824 598.873 257.824C607.645 257.824 613.833 253.472 613.833 246.876C613.833 240.416 607.645 235.928 598.873 235.928C590.033 235.928 583.913 240.416 583.913 246.876ZM589.285 282.032H628.793V261.224H589.285V282.032ZM592.073 246.876C592.073 243.884 594.793 242.252 598.873 242.252C602.953 242.252 605.741 243.884 605.741 246.876C605.741 250.004 602.953 251.636 598.873 251.636C594.793 251.636 592.073 250.004 592.073 246.876ZM597.649 275.368V267.888H620.565V275.368H597.649ZM655.246 228.72H641.51V235.52H648.038C647.63 247.352 645.794 256.6 639.538 266.188L646.066 269.724C653.75 257.62 655.246 243.952 655.246 228.72ZM653.138 269.18L659.598 272.784C663.814 266.188 666.126 258.98 667.35 251.5H673.47V279.924H681.29V223.076H673.47V244.7H668.234C668.71 239.464 668.778 234.092 668.778 228.72H657.082V235.52H661.638C661.366 247.896 660.006 258.776 653.138 269.18ZM685.166 282.78H693.19V221.784H685.166V282.78ZM717.568 224.98V250.684H722.6C735.588 250.684 742.932 250.344 750.888 248.576L750.004 241.98C742.932 243.544 736.54 244.02 725.932 244.088V231.576H744.836V224.98H717.568ZM723.212 261.292H754.968V265.1H723.348V282.032H765.1V275.368H731.644V271.288H763.332V254.628H723.212V261.292ZM754.9 252.112H763.332V240.212H771.492V233.412H763.332V221.716H754.9V252.112ZM817.461 221.648V234.772H807.193V241.504H817.461V251.364H806.989V258.164H817.461V282.848H825.825V221.648H817.461ZM776.933 233.616H795.769V243.68H777.069V269.248H781.829C791.145 269.248 798.897 269.044 807.941 267.616L807.193 260.748C799.577 261.836 792.981 262.176 785.433 262.244V250.344H804.065V226.884H776.933V233.616ZM834.327 268.772V275.64H889.543V268.772H877.167V253.676C881.859 250.82 884.647 246.468 884.647 241.164C884.647 231.236 874.991 224.844 861.867 224.844C848.743 224.844 839.155 231.236 839.155 241.164C839.155 246.536 841.943 250.82 846.635 253.676V268.772H834.327ZM847.519 241.164C847.519 235.044 853.299 231.44 861.867 231.44C870.503 231.44 876.215 235.044 876.215 241.164C876.215 247.216 870.503 250.888 861.867 250.888C853.299 250.888 847.519 247.216 847.519 241.164ZM854.999 268.772V256.804C857.175 257.212 859.419 257.416 861.867 257.416C864.315 257.416 866.627 257.212 868.803 256.736V268.772H854.999ZM908.992 224.708H898.452L899.88 263.128H907.768L908.992 224.708ZM899.336 273.94C899.336 276.388 900.9 278.36 903.824 278.36C906.68 278.36 908.244 276.388 908.244 273.94C908.244 271.424 906.68 269.452 903.824 269.452C900.9 269.452 899.336 271.424 899.336 273.94Z" fill="#2C2C2C"/>
<path d="M83.504 85.084V86.41C83.504 89.842 78.98 92.468 75.262 93.066L75.912 94.366C79.24 93.768 82.958 91.818 84.336 88.88C85.74 91.792 89.458 93.768 92.734 94.366L93.41 93.066C89.744 92.468 85.142 89.764 85.142 86.41V85.084H83.504ZM74.118 98.474H83.478V106.846H85.064V98.474H94.528V97.096H74.118V98.474ZM99.6766 84.72V92.104H114.913V90.752H101.289V84.72H99.6766ZM96.8426 96.342H117.253V95.016H96.8426V96.342ZM99.3386 102.686C99.3386 105.234 102.225 106.742 107.035 106.742C111.845 106.742 114.731 105.234 114.731 102.686C114.731 100.06 111.845 98.578 107.035 98.578C102.225 98.578 99.3386 100.06 99.3386 102.686ZM100.951 102.686C100.951 100.918 103.317 99.878 107.035 99.878C110.753 99.878 113.093 100.918 113.093 102.686C113.093 104.376 110.753 105.442 107.035 105.442C103.317 105.442 100.951 104.376 100.951 102.686ZM131.591 103.44H128.211V87.788H131.591C135.881 87.788 139.365 91.298 139.365 95.614C139.365 99.956 135.881 103.44 131.591 103.44ZM126.625 105H131.591C136.739 105 140.925 100.788 140.925 95.614C140.925 90.44 136.739 86.228 131.591 86.228H126.625V105ZM144.695 94.652V96.186H155.667V94.652H144.695ZM162.311 86.514H160.803L158.593 87.372L159.139 88.776L160.803 88.152V104.714H162.311V86.514ZM176.38 86.514H174.872L166.24 98.474V99.982H174.872V104.714H176.38V99.982H179.318V98.5H176.38V86.514ZM168.112 98.5L174.872 89.114V98.5H168.112ZM190.771 95.302C192.539 94.392 193.605 92.988 193.605 91.324C193.605 88.464 190.979 86.358 188.041 86.358C185.103 86.358 182.425 88.464 182.425 91.324H184.011C184.011 89.582 185.623 87.866 188.041 87.866C190.459 87.866 192.097 89.66 192.097 91.194C192.097 93.014 190.667 94.522 187.937 94.522H186.871V96.03H187.937C191.083 96.03 192.331 97.824 192.331 99.644C192.331 101.412 190.537 103.31 187.885 103.31C185.259 103.31 183.465 101.386 183.465 99.566H181.931C181.931 102.634 184.739 104.87 187.885 104.87C191.057 104.87 193.865 102.634 193.865 99.566C193.865 97.746 192.617 96.108 190.771 95.302Z" fill="#2C2C2C"/>
<path d="M83.322 357.98V359.254C83.322 362.53 79.188 365.26 75.106 365.884L75.912 367.444C79.422 366.846 82.906 364.896 84.362 362.062C85.792 364.87 89.276 366.846 92.76 367.444L93.566 365.884C89.536 365.26 85.35 362.452 85.35 359.254V357.98H83.322ZM74.04 371.63H83.296V379.924H85.246V371.63H94.606V369.966H74.04V371.63ZM113.509 357.174V364.064H109.635V365.728H113.509V370.954H115.485V357.174H113.509ZM96.8166 361.178H109.973V359.566H104.383V356.94H102.433V359.566H96.8166V361.178ZM98.1426 366.43C98.1426 368.848 100.327 370.486 103.395 370.486C106.437 370.486 108.621 368.848 108.621 366.43C108.621 364.038 106.437 362.374 103.395 362.374C100.327 362.374 98.1426 364.038 98.1426 366.43ZM100.041 366.43C100.041 364.948 101.419 363.908 103.395 363.908C105.345 363.908 106.749 364.948 106.749 366.43C106.749 367.938 105.345 368.952 103.395 368.952C101.419 368.952 100.041 367.938 100.041 366.43ZM100.769 379.586H115.485V372.176H100.769V379.586ZM102.693 378V373.762H113.561V378H102.693ZM124.325 358.578V361.646C124.325 364.22 122.505 367.158 119.541 368.51L120.607 370.044C122.843 369.056 124.481 367.106 125.313 364.922C126.119 366.898 127.679 368.536 129.837 369.368L130.877 367.886C127.991 366.742 126.249 364.168 126.249 361.646V358.578H124.325ZM123.623 375.816C123.623 378.364 126.535 379.872 131.215 379.872C135.895 379.872 138.781 378.364 138.781 375.816C138.781 373.242 135.895 371.734 131.215 371.734C126.535 371.734 123.623 373.242 123.623 375.816ZM125.599 375.816C125.599 374.204 127.731 373.294 131.215 373.294C134.699 373.294 136.831 374.204 136.831 375.816C136.831 377.402 134.699 378.338 131.215 378.338C127.731 378.338 125.599 377.402 125.599 375.816ZM131.865 370.486H133.737V364.948H136.779V371.214H138.651V357.148H136.779V363.336H133.737V357.59H131.865V370.486ZM154.29 358.916C150.988 358.916 148.648 361.984 148.648 366.82C148.648 371.656 150.988 374.75 154.29 374.75C156.474 374.75 158.242 373.398 159.178 371.11H164.976V379.95H166.926V357.122H164.976V362.27H159.074C158.086 360.138 156.37 358.916 154.29 358.916ZM150.494 366.82C150.494 363.102 152.054 360.684 154.29 360.684C156.5 360.684 158.06 363.102 158.06 366.82C158.06 370.564 156.5 373.008 154.29 373.008C152.054 373.008 150.494 370.564 150.494 366.82ZM159.62 363.882H164.976V369.472H159.698C159.854 368.666 159.958 367.782 159.958 366.82C159.958 365.754 159.854 364.766 159.62 363.882ZM187.649 357.122V365.936H183.255V367.574H187.649V379.95H189.625V357.122H187.649ZM171.737 360.892H179.979V365.598H171.789V374.438H173.505C177.639 374.438 180.551 374.308 183.957 373.71L183.801 372.046C180.525 372.67 177.691 372.8 173.765 372.8V367.21H181.903V359.254H171.737V360.892ZM193.629 369.186V370.824H203.093V375.296H205.069V370.824H214.247V369.186H193.629ZM196.281 379.404H211.959V377.766H198.231V373.242H196.281V379.404ZM196.385 366.924H211.543V357.876H209.567V360.814H198.335V357.876H196.385V366.924ZM198.335 365.364V362.374H209.567V365.364H198.335ZM216.38 369.16V370.772H236.946V369.16H216.38ZM218.694 362.452C218.694 365.286 221.762 366.976 226.65 366.976C231.538 366.976 234.632 365.286 234.632 362.452C234.632 359.618 231.538 357.954 226.65 357.954C221.762 357.954 218.694 359.618 218.694 362.452ZM219.058 379.404H234.632V377.766H221.008V372.826H219.058V379.404ZM220.696 362.452C220.696 360.632 223.062 359.54 226.65 359.54C230.29 359.54 232.604 360.632 232.604 362.452C232.604 364.246 230.29 365.364 226.65 365.364C223.062 365.364 220.696 364.246 220.696 362.452ZM255.289 371.526C250.453 371.526 247.411 373.112 247.411 375.712C247.411 378.312 250.453 379.846 255.289 379.846C260.151 379.846 263.219 378.312 263.219 375.712C263.219 373.112 260.151 371.526 255.289 371.526ZM245.123 369.394H265.637V367.782H255.575V363.362H253.625V367.782H245.123V369.394ZM247.567 359.904H261.087V360.242C261.087 362.01 261.087 363.726 260.463 366.04L262.387 366.274C263.011 363.908 263.011 362.088 263.011 360.242V358.318H247.567V359.904ZM249.361 375.712C249.361 374.074 251.701 373.086 255.289 373.086C258.929 373.086 261.269 374.074 261.269 375.712C261.269 377.298 258.929 378.312 255.289 378.312C251.701 378.312 249.361 377.298 249.361 375.712ZM267.821 370.668V372.254H277.077V379.924H279.027V372.254H288.439V370.668H267.821ZM270.421 367.912H285.787V358.084H283.837V361.256H272.371V358.084H270.421V367.912ZM272.371 366.274V362.868H283.837V366.274H272.371ZM307.992 357.122V379.924H309.89V357.122H307.992ZM290.858 366.95C290.858 371.812 292.756 374.88 295.668 374.88C298.476 374.88 300.322 372.124 300.504 367.678H303.494V378.754H305.366V357.668H303.494V366.04H300.504C300.27 361.724 298.45 359.072 295.668 359.072C292.756 359.072 290.858 362.114 290.858 366.95ZM292.678 366.95C292.678 363.258 293.848 360.918 295.668 360.918C297.54 360.918 298.71 363.258 298.71 366.95C298.71 370.668 297.54 373.034 295.668 373.034C293.848 373.034 292.678 370.668 292.678 366.95ZM320.147 358.656V360.268H325.399V360.892C325.399 364.038 322.981 366.846 319.601 367.964L320.589 369.524C323.293 368.588 325.425 366.638 326.439 364.09C327.453 366.456 329.585 368.276 332.211 369.134L333.199 367.6C329.871 366.534 327.401 363.856 327.401 360.892V360.268H332.627V358.656H320.147ZM323.319 379.586H337.905V370.616H335.981V373.372H325.243V370.616H323.319V379.586ZM325.243 377.974V374.984H335.981V377.974H325.243ZM335.929 369.472H337.905V357.174H335.929V369.472ZM341.987 367.834V369.446H351.269V371.89C346.979 372.072 344.483 373.502 344.483 375.894C344.483 378.416 347.369 379.846 352.257 379.846C357.119 379.846 360.031 378.416 360.031 375.894C360.031 373.502 357.509 372.072 353.219 371.89V369.446H362.553V367.834H341.987ZM343.157 364.818L343.885 366.404C347.551 365.936 351.035 364.298 352.283 361.724C353.505 364.272 356.989 365.936 360.655 366.404L361.383 364.818C357.457 364.402 353.687 362.4 353.557 359.8H360.707V358.214H343.885V359.8H351.035C350.905 362.4 347.057 364.402 343.157 364.818ZM346.459 375.894C346.459 374.308 348.669 373.45 352.257 373.45C355.845 373.45 358.029 374.308 358.029 375.894C358.029 377.428 355.845 378.312 352.257 378.312C348.669 378.312 346.459 377.428 346.459 375.894ZM380.208 357.148V379.95H382.158V368.224H385.928V366.56H382.158V357.148H380.208ZM364.582 362.452H378.024V360.814H372.382V357.434H370.354V360.814H364.582V362.452ZM365.908 369.576C365.908 372.67 368.222 374.776 371.394 374.776C374.592 374.776 376.932 372.67 376.932 369.576C376.932 366.508 374.592 364.376 371.394 364.376C368.222 364.376 365.908 366.508 365.908 369.576ZM367.78 369.576C367.78 367.522 369.314 366.014 371.394 366.014C373.5 366.014 375.06 367.522 375.06 369.576C375.06 371.656 373.5 373.138 371.394 373.138C369.314 373.138 367.78 371.656 367.78 369.576ZM396.406 365.364V366.976H400.254V378.754H402.1V357.668H400.254V365.364H396.406ZM387.202 373.502L388.476 374.984C390.738 373.606 392.402 371.006 393.234 367.99C394.04 370.746 395.6 373.19 397.784 374.49L398.902 372.956C395.938 371.162 394.17 367.236 394.17 363.622V359.306H392.246V363.7C392.246 367.626 390.322 371.656 387.202 373.502ZM404.882 379.924H406.806V357.122H404.882V379.924ZM410.161 375.348V377.012H430.779V375.348H425.657V369.134C427.555 368.12 428.699 366.508 428.699 364.48C428.699 360.918 425.267 358.63 420.431 358.63C415.621 358.63 412.189 360.918 412.189 364.48C412.189 366.508 413.333 368.146 415.257 369.16V375.348H410.161ZM414.087 364.48C414.087 361.906 416.765 360.19 420.431 360.19C424.123 360.19 426.749 361.906 426.749 364.48C426.749 367.028 424.123 368.718 420.431 368.718C416.765 368.718 414.087 367.028 414.087 364.48ZM417.207 375.348V369.888C418.169 370.148 419.261 370.278 420.431 370.278C421.601 370.278 422.693 370.148 423.681 369.888V375.348H417.207ZM74.014 407.822V409.434H83.478V414.088H85.454V409.434H94.632V407.822H74.014ZM76.666 418.404H92.344V416.766H78.616V411.904H76.666V418.404ZM76.692 405.196H91.954V397.24H76.692V405.196ZM78.616 403.584V398.8H90.004V403.584H78.616ZM114.185 396.122V418.924H116.109V396.122H114.185ZM96.5046 412.866L97.7526 414.348C100.041 412.892 101.679 410.24 102.485 407.094C103.291 410.006 104.877 412.45 107.087 413.776L108.283 412.346C105.189 410.526 103.447 406.6 103.447 402.622V400.464H107.581V398.852H97.1286V400.464H101.497V402.622C101.497 406.834 99.6506 410.968 96.5046 412.866ZM105.787 405.976H109.635V417.728H111.481V396.694H109.635V404.364H105.787V405.976ZM120.269 398.488V400.152H125.599V403.168C125.599 407.12 122.765 411.41 119.541 412.97L120.685 414.556C123.285 413.23 125.573 410.292 126.613 406.964C127.679 410.11 129.941 412.762 132.567 413.984L133.711 412.424C130.409 410.968 127.601 407.042 127.601 403.168V400.152H132.983V398.488H120.269ZM136.129 418.95H138.105V396.148H136.129V418.95ZM157.684 396.122V418.924H159.66V407.094H163.352V405.43H159.66V396.122H157.684ZM142.396 413.022L143.488 414.556C150.82 410.89 153.81 405.04 153.81 398.592H143.41V400.23H151.834C151.392 405.638 148.22 410.084 142.396 413.022ZM171.867 397.708V407.432H182.293V397.708H171.867ZM173.193 417.312L173.973 418.82C177.249 418.248 180.239 416.636 181.513 414.348C182.787 416.61 185.777 418.3 189.079 418.872L189.807 417.312C186.141 416.714 182.735 414.582 182.527 412.112H188.923V410.5H174.077V412.112H180.473C180.265 414.634 176.937 416.714 173.193 417.312ZM173.791 405.82V399.32H180.369V405.82H173.791ZM186.583 409.174H188.559V403.324H191.939V401.66H188.559V396.148H186.583V409.174ZM193.655 407.406V409.044H202.963V411.592H196.203V418.586H211.699V411.592H204.913V409.044H214.221V407.406H193.655ZM194.877 404.546L195.501 406.028C199.193 405.638 202.547 404.338 203.925 402.076C205.303 404.338 208.657 405.638 212.375 406.028L212.999 404.546C208.787 404.182 205.147 402.466 204.991 399.892H212.115V398.306H204.913V396.018H202.963V398.306H195.787V399.892H202.885C202.729 402.466 199.089 404.182 194.877 404.546ZM198.101 417V413.152H209.749V417H198.101ZM229.198 401.66V403.272H233.124V406.08H229.172V407.692H233.124V410.864H235.1V396.148H233.124V401.66H229.198ZM216.432 400.282H229.224V398.696H223.894V395.94H221.918V398.696H216.432V400.282ZM217.732 405.69C217.732 408.238 219.864 409.928 222.906 409.928C225.922 409.928 228.028 408.238 228.028 405.69C228.028 403.168 225.922 401.504 222.906 401.504C219.864 401.504 217.732 403.168 217.732 405.69ZM219.63 405.69C219.63 404.104 220.93 403.038 222.906 403.038C224.83 403.038 226.156 404.104 226.156 405.69C226.156 407.328 224.83 408.42 222.906 408.42C220.93 408.42 219.63 407.328 219.63 405.69ZM220.098 414.998C220.098 417.442 222.958 418.872 227.664 418.872C232.37 418.872 235.23 417.442 235.23 414.998C235.23 412.528 232.37 411.098 227.664 411.098C222.958 411.098 220.098 412.528 220.098 414.998ZM222.152 414.998C222.152 413.49 224.258 412.658 227.664 412.658C231.07 412.658 233.176 413.49 233.176 414.998C233.176 416.48 231.07 417.312 227.664 417.312C224.258 417.312 222.152 416.48 222.152 414.998ZM257.239 402.076V403.714H261.841V409.72H263.817V396.148H261.841V402.076H257.239ZM245.227 407.926L246.241 409.512C248.945 408.498 251.051 406.366 252.013 403.688C253.001 406.028 254.977 407.926 257.525 408.862L258.513 407.302C255.237 406.106 252.949 403.272 252.949 400.308V399.476H257.993V397.838H245.851V399.476H250.973V400.334C250.973 403.61 248.581 406.704 245.227 407.926ZM248.789 414.66C248.789 417.338 251.675 418.898 256.355 418.898C261.035 418.898 263.895 417.338 263.895 414.66C263.895 412.008 261.035 410.448 256.355 410.448C251.675 410.448 248.789 412.008 248.789 414.66ZM250.713 414.66C250.713 412.97 252.871 411.982 256.355 411.982C259.813 411.982 261.945 412.97 261.945 414.66C261.945 416.324 259.813 417.338 256.355 417.338C252.871 417.338 250.713 416.324 250.713 414.66ZM267.821 414.348V416.012H288.439V414.348H279.053V409.408H285.943V397.76H283.993V401.894H272.241V397.76H270.265V409.408H277.103V414.348H267.821ZM272.241 407.77V403.532H283.993V407.77H272.241ZM290.546 406.782V408.264H311.164V406.782H290.546ZM293.016 411.618H306.64V413.594H293.068V418.586H309.292V417.182H294.992V414.972H308.564V410.188H293.016V411.618ZM293.172 398.254H306.562V400.152H293.224V405.014H308.928V403.558H295.148V401.53H308.512V396.85H293.172V398.254ZM334.915 396.174V407.77H336.891V402.726H340.271V401.114H336.891V396.174H334.915ZM319.679 402.05C319.679 405.014 322.175 407.094 325.555 407.094C328.961 407.094 331.405 405.014 331.405 402.05C331.405 399.06 328.961 396.98 325.555 396.98C322.175 396.98 319.679 399.06 319.679 402.05ZM321.603 402.05C321.603 400.022 323.293 398.618 325.555 398.618C327.817 398.618 329.481 400.022 329.481 402.05C329.481 404.052 327.817 405.456 325.555 405.456C323.293 405.456 321.603 404.052 321.603 402.05ZM322.487 410.422H334.941V412.866H322.565V418.586H337.697V417H324.463V414.374H336.891V408.862H322.487V410.422ZM348.019 397.916C344.691 397.916 342.325 400.984 342.325 405.82C342.325 410.656 344.691 413.75 348.019 413.75C351.347 413.75 353.687 410.656 353.687 405.82C353.687 400.984 351.347 397.916 348.019 397.916ZM344.223 405.82C344.223 402.102 345.783 399.684 348.019 399.684C350.281 399.684 351.815 402.102 351.815 405.82C351.815 409.564 350.281 412.008 348.019 412.008C345.783 412.008 344.223 409.564 344.223 405.82ZM357.457 418.95H359.433V406.964H363.177V405.274H359.433V396.148H357.457V418.95ZM376.1 403.948V405.56H381.482V418.95H383.432V396.122H381.482V403.948H376.1ZM364.738 412.502L365.986 414.088C368.56 412.71 370.692 409.772 371.68 406.366C372.694 409.616 374.826 412.346 377.374 413.672L378.544 412.086C375.294 410.552 372.642 406.392 372.642 402.284V398.124H370.666V402.284C370.666 406.496 368.04 410.838 364.738 412.502ZM410.849 396.122V418.924H412.773V396.122H410.849ZM393.169 412.866L394.417 414.348C396.705 412.892 398.343 410.24 399.149 407.094C399.955 410.006 401.541 412.45 403.751 413.776L404.947 412.346C401.853 410.526 400.111 406.6 400.111 402.622V400.464H404.245V398.852H393.793V400.464H398.161V402.622C398.161 406.834 396.315 410.968 393.169 412.866ZM402.451 405.976H406.299V417.728H408.145V396.694H406.299V404.364H402.451V405.976ZM426.345 410.526C421.509 410.526 418.467 412.112 418.467 414.712C418.467 417.312 421.509 418.846 426.345 418.846C431.207 418.846 434.275 417.312 434.275 414.712C434.275 412.112 431.207 410.526 426.345 410.526ZM416.179 408.394H436.693V406.782H426.631V402.362H424.681V406.782H416.179V408.394ZM418.623 398.904H432.143V399.242C432.143 401.01 432.143 402.726 431.519 405.04L433.443 405.274C434.067 402.908 434.067 401.088 434.067 399.242V397.318H418.623V398.904ZM420.417 414.712C420.417 413.074 422.757 412.086 426.345 412.086C429.985 412.086 432.325 413.074 432.325 414.712C432.325 416.298 429.985 417.312 426.345 417.312C422.757 417.312 420.417 416.298 420.417 414.712ZM438.878 400.074V401.712H450.188V400.074H445.508V396.824H443.558V400.074H438.878ZM439.658 408.42C439.658 411.514 441.712 413.594 444.52 413.594C447.38 413.594 449.408 411.514 449.408 408.42C449.408 405.404 447.38 403.272 444.52 403.272C441.712 403.272 439.658 405.404 439.658 408.42ZM441.452 408.42C441.452 406.444 442.726 404.962 444.52 404.962C446.34 404.962 447.64 406.444 447.64 408.42C447.64 410.5 446.34 411.956 444.52 411.956C442.726 411.956 441.452 410.5 441.452 408.42ZM451.332 417.78H453.23V407.406H456.246V418.924H458.118V396.122H456.246V405.768H453.23V396.694H451.332V417.78ZM470.221 398.28V408.732H485.821V407.094H472.171V399.892H485.587V398.28H470.221ZM467.595 415.778H488.213V414.166H467.595V415.778ZM491.411 397.214V398.8H499.861V401.374H491.463V407.224H493.283C497.729 407.224 500.693 407.12 504.333 406.548L504.151 404.988C500.615 405.534 497.729 405.638 493.387 405.638V402.83H501.785V397.214H491.411ZM494.245 410.708H506.959V413.022H494.349V418.638H509.741V417.078H496.299V414.504H508.935V409.174H494.245V410.708ZM506.959 408.108H508.935V396.174H506.959V408.108ZM530.49 396.122V418.924H532.388V396.122H530.49ZM513.096 412.58L514.266 414.01C517.412 412.112 519.596 409.772 520.948 407.12H525.784V417.728H527.63V396.746H525.784V405.508H521.676C522.456 403.48 522.82 401.296 522.82 399.06H514.058V400.672H520.87C520.506 405.456 518.036 409.616 513.096 412.58ZM535.769 414.348V416.012H556.387V414.348H551.265V408.134C553.163 407.12 554.307 405.508 554.307 403.48C554.307 399.918 550.875 397.63 546.039 397.63C541.229 397.63 537.797 399.918 537.797 403.48C537.797 405.508 538.941 407.146 540.865 408.16V414.348H535.769ZM539.695 403.48C539.695 400.906 542.373 399.19 546.039 399.19C549.731 399.19 552.357 400.906 552.357 403.48C552.357 406.028 549.731 407.718 546.039 407.718C542.373 407.718 539.695 406.028 539.695 403.48ZM542.815 414.348V408.888C543.777 409.148 544.869 409.278 546.039 409.278C547.209 409.278 548.301 409.148 549.289 408.888V414.348H542.815ZM562.731 398.228H560.365L560.703 412.502H562.419L562.731 398.228ZM560.365 415.804C560.365 416.48 560.781 417 561.561 417C562.315 417 562.731 416.48 562.731 415.804C562.731 415.154 562.315 414.634 561.561 414.634C560.781 414.634 560.365 415.154 560.365 415.804Z" fill="#2C2C2C"/>
<defs>
<linearGradient id="paint0_linear_504_1199" x1="0" y1="0" x2="1465" y2="511" gradientUnits="userSpaceOnUse">
<stop stop-color="#1C66FF"/>
<stop offset="1" stop-color="#00FF80" stop-opacity="0.5"/>
</linearGradient>
</defs>
</svg>
