<svg width="1465" height="511" viewBox="0 0 1465 511" fill="none" xmlns="http://www.w3.org/2000/svg">
<rect width="1465" height="511" fill="url(#paint0_linear_504_1200)" fill-opacity="0.6"/>
<path d="M129.392 155.156H118.172L103.076 183.036L87.912 155.156H76.828V205.748H85.056V168.008L99.2 194.528H106.612L121.096 168.008V205.748H129.392V155.156ZM179.982 185.62V155.156H171.754V185.552C171.754 192.692 166.518 197.86 159.718 197.86C152.51 197.86 147.614 192.692 147.614 185.552V155.156H139.386V185.62C139.386 197.044 148.498 206.224 159.718 206.224C170.326 206.224 179.982 197.044 179.982 185.62ZM235.215 155.156H227.055V193.984L199.719 155.156H189.383V205.748H197.679V166.852L224.607 205.748H235.215V155.156ZM273.415 190.924V155.156H265.255V190.856C265.255 194.664 261.855 197.996 257.435 197.996C254.171 197.996 251.519 196.16 250.431 193.712L242.611 197.112C245.127 202.62 250.907 206.224 257.367 206.224C266.071 206.224 273.415 199.56 273.415 190.924ZM317.547 155.156H282.935V205.748H317.547V197.656H291.027V183.784H315.371V175.692H291.027V163.18H317.547V155.156ZM366.379 155.156H323.199V163.248H354.547L323.199 198.132V205.748H366.379V197.724H334.691L366.379 162.84V155.156ZM373.466 155.156V205.748H381.626V155.156H373.466ZM431.48 187.728C418.424 187.728 409.992 192.08 409.992 199.288C409.992 206.36 418.424 210.712 431.48 210.712C444.672 210.712 453.104 206.36 453.104 199.288C453.104 192.08 444.672 187.728 431.48 187.728ZM404.416 183.784H459.292V177.052H433.384V166.376H424.952V177.052H404.416V183.784ZM410.604 159.168H444.332C444.332 163.316 444.128 167.464 442.7 172.972L451.064 173.788C452.696 167.464 452.696 162.364 452.696 157.536V152.504H410.604V159.168ZM418.424 199.288C418.424 195.82 423.116 194.12 431.48 194.12C439.912 194.12 444.74 195.82 444.74 199.288C444.74 202.552 439.912 204.32 431.48 204.32C423.116 204.32 418.424 202.552 418.424 199.288ZM478.265 152.572V158.42C478.265 166.24 473.709 174.196 463.645 177.46L467.725 184.192C474.933 181.88 479.897 176.984 482.617 170.932C485.337 176.508 490.097 180.86 496.965 183.036L501.113 176.508C491.253 173.448 486.833 166.104 486.833 158.42V152.572H478.265ZM472.961 195.548H505.873V210.78H514.373V188.816H472.961V195.548ZM505.873 186.164H514.373V149.784H505.873V186.164ZM569.623 168.96V175.76H581.523V210.848H589.955V149.648H581.523V168.96H569.623ZM538.139 191.672L543.443 198.404C550.243 195.004 554.867 188.476 557.451 180.452C560.035 188 564.523 194.12 571.255 197.384L576.287 190.652C566.359 186.232 561.667 175.012 561.667 163.52V154.476H553.167V163.52C553.167 175.08 548.339 186.844 538.139 191.672ZM598.253 196.976V203.912H653.469V196.976H629.873V185.756H648.709V179.092H640.481V161.616H648.845V154.816H602.537V161.616H611.037V179.092H602.809V185.756H621.509V196.976H598.253ZM619.401 179.092V161.616H632.049V179.092H619.401ZM700.322 149.648V171.272H689.646V178.208H700.322V210.848H708.754V149.648H700.322ZM660.474 196.976H665.37C675.706 196.976 683.594 196.772 692.366 195.344L691.618 188.612C684.07 189.836 677.338 190.04 668.906 190.108V178.48H686.586V171.884H668.906V161.684H688.694V154.816H660.474V196.976ZM717.12 196.5V203.368H772.336V196.5H717.12ZM719.296 180.792L722.696 187.592C733.1 185.62 740.852 180.18 744.728 172.904C748.604 180.112 756.492 185.348 767.032 187.184L770.296 180.52C756.764 178.548 749.08 170.32 749.08 161.82V161.684H767.644V154.952H721.676V161.684H740.24V161.82C740.24 170.32 732.624 178.684 719.296 180.792ZM345.058 243.904H337.102L327.854 247.236L330.438 254.92L337.102 252.676V293H345.058V243.904ZM395.91 237.716V298.712H404.342V237.716H395.91ZM353.886 281.644L358.306 288.308C379.794 277.904 386.254 262.672 386.254 244.04H357.014V250.84H377.618C376.326 264.372 369.458 274.164 353.886 281.644ZM428.651 284.772V291.64H483.867V284.772H460.339V272.192H477.747V242.34H434.499V272.192H451.975V284.772H428.651ZM442.863 265.46V249.004H469.451V265.46H442.863ZM490.669 241.116V247.78H503.113C502.705 254.784 498.081 261.652 488.425 264.576L492.641 271.172C499.849 268.928 504.813 264.372 507.533 258.592C510.253 263.896 515.149 268.044 522.017 270.084L526.097 263.556C516.713 260.836 512.157 254.308 511.749 247.78H523.921V241.116H490.669ZM498.353 298.032H538.745V273.484H530.381V279.196H506.717V273.484H498.353V298.032ZM506.717 291.232V285.792H530.381V291.232H506.717ZM530.245 270.832H538.745V237.784H530.245V270.832Z" fill="#2C2C2C"/>
<path d="M79.004 240.504V247.236H87.028V261.244H79.548V267.976H123.952V261.244H116.472V247.236H124.496V240.504H79.004ZM74.04 280.012H97.432V298.712H105.796V280.012H129.256V273.28H74.04V280.012ZM95.46 261.244V247.236H108.108V261.244H95.46ZM175.77 237.648V298.848H184.202V237.648H175.77ZM136.806 249.684H156.866V259.68H136.942V284.568H142.246C153.262 284.568 162.306 284.228 172.234 282.392L171.418 275.66C162.646 277.156 154.758 277.564 145.442 277.632V266.344H165.502V242.884H136.806V249.684ZM192.975 272.396V279.128H205.487V298.78H213.919V279.128H227.247V298.78H235.679V279.128H248.191V272.396H192.975ZM199.299 266.548H241.595V239.96H233.299V246.76H207.663V239.96H199.299V266.548ZM207.663 259.748V253.492H233.299V259.748H207.663ZM269.137 242C260.025 242 253.429 250.364 253.429 263.692C253.429 277.088 260.025 285.52 269.137 285.52C277.501 285.52 283.825 278.312 284.709 266.616H295.113V298.848H303.545V237.648H295.113V259.816H284.641C283.485 248.732 277.297 242 269.137 242ZM261.453 263.692C261.453 254.58 264.581 249.684 269.137 249.684C273.625 249.684 276.685 254.58 276.685 263.692C276.685 272.872 273.625 277.836 269.137 277.836C264.581 277.836 261.453 272.872 261.453 263.692Z" fill="#1C66FF"/>
<path d="M91.72 102.228H90.134L83.452 114.682L76.718 102.228H75.158V121H76.718V105.53L82.854 116.84H84.05L90.16 105.53V121H91.72V102.228ZM110.509 113.72V102.228H108.949V113.746C108.949 117.152 106.323 119.596 103.333 119.596C100.135 119.596 97.7173 117.152 97.7173 113.746V102.228H96.1573V113.72C96.1573 117.932 99.1733 121.182 103.333 121.182C107.155 121.182 110.509 117.932 110.509 113.72ZM129.535 102.228H128.001V118.27L116.275 102.228H114.715V121H116.275V104.932L128.001 121H129.535V102.228ZM144.45 115.514V102.228H142.89V115.54C142.89 117.724 140.94 119.596 138.444 119.596C136.572 119.596 135.064 118.556 134.414 117.152L133.01 117.802C133.946 119.83 136.078 121.182 138.47 121.182C141.72 121.182 144.45 118.712 144.45 115.514ZM160.643 102.228H148.683V121H160.643V119.492H150.269V112.108H159.837V110.574H150.269V103.736H160.643V102.228ZM178.601 102.228H163.417V103.736H176.651L163.417 119.466V121H178.601V119.492H165.471L178.601 103.814V102.228ZM181.901 102.228V121H183.461V102.228H181.901ZM203.976 108.156V109.482H209.618V122.872H211.204V100.2H209.618V108.156H203.976ZM192.822 116.684L193.836 117.984C196.358 116.58 198.672 113.538 199.634 110.054C200.622 113.356 202.91 116.216 205.432 117.568L206.394 116.242C203.326 114.76 200.414 110.626 200.414 106.596V102.254H198.802V106.596C198.802 110.756 195.942 115.072 192.822 116.684ZM215.442 118.556V119.934H235.904V118.556H226.388V112.966H233.876V111.64H230.236V103.866H233.902V102.488H217.288V103.866H221.006V111.64H217.34V112.966H224.802V118.556H215.442ZM222.618 111.64V103.866H228.624V111.64H222.618ZM255.041 100.2V108.962H250.023V110.314H255.041V122.872H256.627V100.2H255.041ZM239.259 117.308H240.923C245.369 117.308 248.099 117.152 251.349 116.58L251.167 115.202C247.995 115.826 245.369 115.93 240.923 115.93H240.845V110.054H248.593V108.728H240.845V103.71H249.659V102.358H239.259V117.308ZM260.891 118.348V119.726H281.353V118.348H260.891ZM261.931 112.914L262.633 114.214C265.779 113.512 269.705 111.172 271.135 107.948C272.565 111.172 276.465 113.434 279.663 114.11L280.339 112.836C276.855 112.238 271.915 109.118 271.915 105.374V103.97H279.637V102.618H262.581V103.97H270.303V105.374C270.303 109.118 265.389 112.29 261.931 112.914Z" fill="#2C2C2C"/>
<path d="M566.43 259.608V261.506H577.74V259.608H569.238C572.8 256.436 577.454 252.874 577.48 249C577.48 245.594 574.672 243.436 571.942 243.436C570.148 243.436 567.652 244.242 566.326 247.284L568.042 248.064C569.03 245.854 570.538 245.334 571.942 245.334C573.892 245.334 575.582 246.66 575.582 249C575.582 252.354 570.122 255.994 566.43 259.608ZM587.048 259.998C584.058 259.998 582.238 257.632 582.238 252.614C582.238 247.596 584.058 245.256 587.048 245.256C590.012 245.256 591.832 247.596 591.832 252.614C591.832 257.632 590.012 259.998 587.048 259.998ZM580.366 252.614C580.366 258.412 583.018 261.87 587.048 261.87C591.052 261.87 593.704 258.412 593.704 252.614C593.704 246.816 591.052 243.384 587.048 243.384C583.018 243.384 580.366 246.816 580.366 252.614ZM596.467 259.608V261.506H607.777V259.608H599.275C602.837 256.436 607.491 252.874 607.517 249C607.517 245.594 604.709 243.436 601.979 243.436C600.185 243.436 597.689 244.242 596.363 247.284L598.079 248.064C599.067 245.854 600.575 245.334 601.979 245.334C603.929 245.334 605.619 246.66 605.619 249C605.619 252.354 600.159 255.994 596.467 259.608ZM610.534 259.608V261.506H621.844V259.608H613.342C616.904 256.436 621.558 252.874 621.584 249C621.584 245.594 618.776 243.436 616.046 243.436C614.252 243.436 611.756 244.242 610.43 247.284L612.146 248.064C613.134 245.854 614.642 245.334 616.046 245.334C617.996 245.334 619.686 246.66 619.686 249C619.686 252.354 614.226 255.994 610.534 259.608ZM626.108 259.738C625.25 259.738 624.782 260.31 624.782 261.012C624.782 261.766 625.25 262.338 626.108 262.338C626.94 262.338 627.382 261.766 627.382 261.012C627.382 260.31 626.94 259.738 626.108 259.738ZM638.007 259.998C635.017 259.998 633.197 257.632 633.197 252.614C633.197 247.596 635.017 245.256 638.007 245.256C640.971 245.256 642.791 247.596 642.791 252.614C642.791 257.632 640.971 259.998 638.007 259.998ZM631.325 252.614C631.325 258.412 633.977 261.87 638.007 261.87C642.011 261.87 644.663 258.412 644.663 252.614C644.663 246.816 642.011 243.384 638.007 243.384C633.977 243.384 631.325 246.816 631.325 252.614ZM650.104 253.134C650.884 252.198 651.924 251.678 653.25 251.678C655.694 251.678 657.462 253.446 657.462 255.864C657.462 258.282 655.694 259.998 653.25 259.998C651.17 259.998 649.636 258.75 649.194 256.774L647.322 257.19C647.946 259.894 650.39 261.896 653.25 261.896C656.604 261.896 659.36 259.192 659.36 255.864C659.36 252.536 656.604 249.78 653.25 249.78C652.158 249.78 651.092 250.092 650.208 250.612L650.39 245.594H658.19V243.696H648.57L648.232 253.082L650.104 253.134ZM663.635 259.738C662.777 259.738 662.309 260.31 662.309 261.012C662.309 261.766 662.777 262.338 663.635 262.338C664.467 262.338 664.909 261.766 664.909 261.012C664.909 260.31 664.467 259.738 663.635 259.738ZM672.935 243.514H671.141L668.697 244.372L669.295 246.088L671.141 245.464V261.714H672.935V243.514ZM682.961 260.102C680.465 260.102 678.697 258.386 678.697 256.618C678.697 254.85 680.491 253.16 682.961 253.16C685.457 253.16 687.199 254.85 687.199 256.618C687.199 258.386 685.457 260.102 682.961 260.102ZM676.851 256.566C676.851 259.686 679.737 261.948 682.961 261.948C686.185 261.948 689.071 259.686 689.071 256.566C689.071 254.72 687.693 253.108 686.055 252.198C687.407 251.314 688.603 249.936 688.603 248.324C688.603 245.464 685.899 243.384 682.961 243.384C680.023 243.384 677.345 245.464 677.345 248.324C677.345 249.936 678.541 251.314 679.893 252.198C678.229 253.108 676.851 254.72 676.851 256.566ZM679.217 248.272C679.217 246.738 680.751 245.23 682.961 245.23C685.197 245.23 686.731 246.738 686.731 248.272C686.731 249.806 685.197 251.314 682.961 251.314C680.751 251.314 679.217 249.806 679.217 248.272ZM567.132 288.51L568.9 289.238C569.498 287.834 570.512 287.6 571.188 287.626C572.02 287.678 572.332 287.938 572.67 288.146L574.906 289.55C575.088 289.654 575.816 290.304 577.272 290.356C578.208 290.382 580.444 290.044 581.406 287.574L579.586 286.898C579.066 288.276 578.026 288.458 577.376 288.432C576.57 288.38 576.232 288.094 575.894 287.886L573.71 286.534C573.476 286.378 572.748 285.806 571.292 285.702C570.33 285.65 568.12 286.066 567.132 288.51ZM597.535 295.998C594.545 295.998 592.725 293.632 592.725 288.614C592.725 283.596 594.545 281.256 597.535 281.256C600.499 281.256 602.319 283.596 602.319 288.614C602.319 293.632 600.499 295.998 597.535 295.998ZM590.853 288.614C590.853 294.412 593.505 297.87 597.535 297.87C601.539 297.87 604.191 294.412 604.191 288.614C604.191 282.816 601.539 279.384 597.535 279.384C593.505 279.384 590.853 282.816 590.853 288.614ZM609.631 289.134C610.411 288.198 611.451 287.678 612.777 287.678C615.221 287.678 616.989 289.446 616.989 291.864C616.989 294.282 615.221 295.998 612.777 295.998C610.697 295.998 609.163 294.75 608.721 292.774L606.849 293.19C607.473 295.894 609.917 297.896 612.777 297.896C616.131 297.896 618.887 295.192 618.887 291.864C618.887 288.536 616.131 285.78 612.777 285.78C611.685 285.78 610.619 286.092 609.735 286.612L609.917 281.594H617.717V279.696H608.097L607.759 289.082L609.631 289.134ZM623.163 295.738C622.305 295.738 621.837 296.31 621.837 297.012C621.837 297.766 622.305 298.338 623.163 298.338C623.995 298.338 624.437 297.766 624.437 297.012C624.437 296.31 623.995 295.738 623.163 295.738ZM637.662 288.302C639.066 287.392 640.236 285.988 640.236 284.324C640.236 281.464 637.584 279.358 634.594 279.358C631.63 279.358 628.926 281.464 628.926 284.324H630.798C630.798 282.738 632.332 281.178 634.594 281.178C636.856 281.178 638.416 282.764 638.416 284.272C638.416 285.884 637.064 287.366 634.49 287.366H633.112V289.186H634.49C637.48 289.186 638.65 290.876 638.65 292.592C638.65 294.308 636.934 296.024 634.438 296.024C631.968 296.024 630.278 294.282 630.278 292.566H628.406C628.406 295.634 631.266 297.87 634.438 297.87C637.636 297.87 640.496 295.634 640.496 292.566C640.496 290.746 639.196 289.212 637.662 288.302ZM647.214 279.514H645.42L642.976 280.372L643.574 282.088L645.42 281.464V297.714H647.214V279.514Z" fill="#2C2C2C"/>
<path d="M429.86 378.266V380.216H433.24V386.196H430.016V388.146H446.682V386.196H443.458V380.216H446.786V378.266H429.86ZM427.936 392.54H437.114V400.002H439.48V392.54H448.71V390.59H427.936V392.54ZM435.632 386.196V380.216H441.066V386.196H435.632ZM467.171 377.018V400.054H469.563V377.018H467.171ZM451.961 381.1H460.203V385.572H452.013V394.542H453.937C457.941 394.542 461.399 394.386 465.403 393.71L465.169 391.76C461.373 392.41 458.123 392.566 454.431 392.566V387.522H462.621V379.124H451.961V381.1ZM473.411 390.356V392.306H478.481V400.028H480.873V392.306H486.697V400.028H489.089V392.306H494.185V390.356H473.411ZM475.959 387.808H491.585V377.954H489.219V380.866H478.325V377.954H475.959V387.808ZM478.325 385.832V382.816H489.219V385.832H478.325ZM502.324 378.786C498.97 378.786 496.552 381.88 496.552 386.82C496.552 391.734 498.97 394.88 502.324 394.88C505.496 394.88 507.836 392.072 508.07 387.626H512.75V400.054H515.142V377.018H512.75V385.702H508.044C507.706 381.412 505.418 378.786 502.324 378.786ZM498.814 386.82C498.814 383.18 500.244 380.944 502.324 380.944C504.378 380.944 505.782 383.18 505.782 386.82C505.782 390.486 504.378 392.748 502.324 392.748C500.244 392.748 498.814 390.486 498.814 386.82ZM529.975 379.41H527.765L524.957 380.424L525.685 382.53L527.765 381.828V397.818H529.975V379.41ZM550.021 377.044V400.002H552.413V377.044H550.021ZM533.745 393.918L535.019 395.816C542.793 392.02 545.653 386.222 545.653 379.488H534.837V381.438H543.235C542.767 386.82 539.803 390.98 533.745 393.918ZM578.66 377.07V393.866H581.052V377.07H578.66ZM562.384 388.718L563.632 390.616C566.336 389.576 568.312 387.418 569.3 384.74C570.288 387.236 572.238 389.212 574.864 390.226L576.086 388.302C572.602 387.08 570.47 383.96 570.47 380.632V378.344H568.026V380.632C568.026 384.09 565.946 387.392 562.384 388.718ZM566.232 399.534H581.754V397.558H568.624V392.306H566.232V399.534ZM585.603 379.722V381.646H590.543V381.932C590.543 384.922 588.437 387.678 584.953 388.77L586.097 390.642C588.801 389.758 590.803 387.886 591.791 385.52C592.831 387.626 594.833 389.264 597.485 390.044L598.577 388.172C595.119 387.21 592.909 384.688 592.909 381.932V381.646H597.849V379.722H592.909V376.966H590.543V379.722H585.603ZM588.619 395.738C588.619 398.416 591.531 399.976 596.315 399.976C601.073 399.976 603.985 398.416 603.985 395.738C603.985 393.06 601.073 391.5 596.315 391.5C591.531 391.5 588.619 393.06 588.619 395.738ZM590.959 395.738C590.959 394.204 592.961 393.346 596.315 393.346C599.643 393.346 601.619 394.204 601.619 395.738C601.619 397.246 599.643 398.078 596.315 398.078C592.961 398.078 590.959 397.246 590.959 395.738ZM597.147 385.442H601.515V390.954H603.907V377.07H601.515V383.492H597.147V385.442ZM622.991 377.07V400.028H625.357V388.38H628.997V386.378H625.357V377.07H622.991ZM607.521 382.608H621.015V380.658H615.555V377.382H613.111V380.658H607.521V382.608ZM608.743 389.654C608.743 392.8 611.109 394.984 614.333 394.984C617.609 394.984 620.001 392.8 620.001 389.654C620.001 386.534 617.609 384.35 614.333 384.35C611.109 384.35 608.743 386.534 608.743 389.654ZM611.005 389.654C611.005 387.704 612.435 386.326 614.333 386.326C616.283 386.326 617.739 387.704 617.739 389.654C617.739 391.656 616.283 393.008 614.333 393.008C612.435 393.008 611.005 391.656 611.005 389.654ZM646.938 377.018V385.728H642.778V387.678H646.938V400.054H649.33V377.018H646.938ZM631.182 381.074H639.112V385.416H631.234V394.568H633.002C637.058 394.568 640.022 394.438 643.454 393.84L643.272 391.864C640.074 392.462 637.266 392.592 633.6 392.592V387.34H641.452V379.124H631.182V381.074ZM674.407 377.018V400.002H676.799V388.224H680.361V386.222H676.799V377.018H674.407ZM659.145 393.892L660.471 395.738C667.933 391.994 670.845 386.118 670.845 379.488H660.237V381.438H668.427C667.959 386.794 664.839 391.006 659.145 393.892ZM698.353 377.044V400.002H700.745V377.044H698.353ZM682.077 393.918L683.351 395.816C691.125 392.02 693.985 386.222 693.985 379.488H683.169V381.438H691.567C691.099 386.82 688.135 390.98 682.077 393.918Z" fill="#2C2C2C"/>
<path d="M74.092 388.926V390.278H83.634V395.14H85.22V390.278H94.554V388.926H74.092ZM76.77 399.3H92.266V397.948H78.382V392.878H76.77V399.3ZM76.77 386.118H91.876V378.344H76.77V386.118ZM78.356 384.766V379.644H90.29V384.766H78.356ZM114.393 377.2V399.846H115.979V377.2H114.393ZM96.6346 393.996L97.6746 395.218C100.015 393.736 101.731 390.98 102.511 387.704C103.317 390.72 104.981 393.294 107.243 394.646L108.231 393.476C105.215 391.708 103.317 387.756 103.317 383.752V381.36H107.633V380.008H97.1806V381.36H101.731V383.752C101.731 388.042 99.7026 392.176 96.6346 393.996ZM105.839 386.846H109.869V398.624H111.403V377.824H109.869V385.494H105.839V386.846ZM120.399 378.812V380.138H125.807V381.048C125.807 384.298 123.207 387.106 119.957 388.198L120.763 389.498C123.441 388.536 125.677 386.508 126.665 383.882C127.653 386.352 129.889 388.198 132.515 389.108L133.321 387.834C130.097 386.794 127.445 384.116 127.445 381.048V380.138H132.801V378.812H120.399ZM123.649 399.508H138.001V390.642H136.415V393.554H125.209V390.642H123.649V399.508ZM125.209 398.156V394.906H136.415V398.156H125.209ZM136.389 389.446H138.001V377.252H136.389V389.446ZM165.106 377.2V399.872H166.692V377.2H165.106ZM149.584 380.762H158.32V385.858H149.636V394.308H151.456C155.226 394.308 158.684 394.152 162.922 393.476L162.766 392.124C158.606 392.826 155.148 392.956 151.456 392.956H151.248V387.236H159.932V379.384H149.584V380.762ZM170.983 390.59V391.916H176.365V399.846H177.977V391.916H184.451V399.846H186.063V391.916H191.471V390.59H170.983ZM173.635 387.704H188.793V378.136H187.181V381.386H175.247V378.136H173.635V387.704ZM175.247 386.352V382.712H187.181V386.352H175.247ZM209.359 377.226V399.872H210.945V388.094H214.819V386.716H210.945V377.226H209.359ZM193.603 382.296H206.993V380.944H201.195V377.486H199.531V380.944H193.603V382.296ZM195.007 389.498C195.007 392.54 197.269 394.62 200.415 394.62C203.535 394.62 205.823 392.54 205.823 389.498C205.823 386.482 203.535 384.402 200.415 384.402C197.269 384.402 195.007 386.482 195.007 389.498ZM196.541 389.498C196.541 387.366 198.179 385.754 200.415 385.754C202.651 385.754 204.289 387.366 204.289 389.498C204.289 391.656 202.651 393.242 200.415 393.242C198.179 393.242 196.541 391.656 196.541 389.498ZM218.642 379.644V380.996H232.63V381.88C232.63 384.636 232.63 387.756 231.824 392.02L233.436 392.254C234.242 387.756 234.242 384.688 234.242 381.88V379.644H218.642ZM216.458 396.492H236.868V395.14H226.26V386.95H224.674V395.14H216.458V396.492ZM251.077 378.552V380.996C251.077 384.584 248.529 387.626 245.253 388.822L246.111 390.148C248.815 389.056 250.973 386.898 251.909 384.116C252.871 386.586 254.951 388.484 257.421 389.446L258.331 388.198C255.159 387.08 252.637 384.22 252.637 380.944V378.552H251.077ZM248.867 395.556C248.867 398.234 251.701 399.768 256.303 399.768C260.931 399.768 263.739 398.234 263.739 395.556C263.739 392.904 260.931 391.344 256.303 391.344C251.701 391.344 248.867 392.904 248.867 395.556ZM250.453 395.556C250.453 393.762 252.715 392.67 256.303 392.67C259.891 392.67 262.153 393.762 262.153 395.556C262.153 397.35 259.891 398.468 256.303 398.468C252.715 398.468 250.453 397.35 250.453 395.556ZM256.823 383.622H262.049V390.668H263.661V377.226H262.049V382.244H256.823V383.622ZM279.937 383.31V384.688H284.773V390.772H286.385V377.226H284.773V383.31H279.937ZM268.055 389.056L268.913 390.356C271.591 389.316 273.801 387.184 274.737 384.48C275.699 386.898 277.753 388.848 280.301 389.81L281.133 388.536C277.961 387.366 275.491 384.532 275.491 381.516V380.268H280.665V378.89H268.627V380.268H273.879V381.542C273.879 384.844 271.279 387.912 268.055 389.056ZM271.435 393.424H284.773V399.872H286.385V392.072H271.435V393.424ZM306.808 377.538C301.868 377.538 298.956 378.916 298.956 381.438C298.956 383.856 301.556 385.26 306.002 385.39V387.262H296.616V388.588H317.026V387.262H307.588V385.416C312.06 385.26 314.66 383.856 314.66 381.438C314.66 378.916 311.748 377.538 306.808 377.538ZM299.112 392.02H312.788V394.334H299.19V399.534H315.076V398.234H300.776V395.608H314.348V390.746H299.112V392.02ZM300.594 381.438C300.594 379.8 302.986 378.76 306.808 378.76C310.656 378.76 312.996 379.8 312.996 381.438C312.996 383.154 310.656 384.142 306.808 384.142C302.986 384.142 300.594 383.154 300.594 381.438ZM336.163 377.2V399.872H337.749V377.2H336.163ZM320.641 380.762H329.377V385.858H320.693V394.308H322.513C326.283 394.308 329.741 394.152 333.979 393.476L333.823 392.124C329.663 392.826 326.205 392.956 322.513 392.956H322.305V387.236H330.989V379.384H320.641V380.762ZM344.899 378.058V385.624H360.135V384.272H346.485V378.058H344.899ZM342.039 390.278H362.527V388.9H342.039V390.278ZM344.769 399.274H360.291V397.922H346.355V392.722H344.769V399.274Z" fill="#2C2C2C"/>
<path d="M734.069 400L732.64 398.488L740.15 390.542H723V388.458L740.165 388.428L732.64 380.481L734.069 379L744 389.508L734.069 400Z" fill="#2C2C2C"/>
<line x1="73" y1="360" x2="744" y2="360" stroke="#2C2C2C" stroke-width="2"/>
<line x1="73" y1="416" x2="744" y2="416" stroke="#2C2C2C" stroke-width="2"/>
<defs>
<linearGradient id="paint0_linear_504_1200" x1="1317" y1="344.5" x2="67" y2="45.9999" gradientUnits="userSpaceOnUse">
<stop stop-color="#1C66FF"/>
<stop offset="1" stop-color="#00FF80" stop-opacity="0.5"/>
</linearGradient>
</defs>
</svg>
