<svg width="23" height="20" viewBox="0 0 23 20" fill="none" xmlns="http://www.w3.org/2000/svg">
<path fill-rule="evenodd" clip-rule="evenodd" d="M11.753 0.0662209C10.755 0.129497 10.755 0.130087 10.7551 0.130713L10.7552 0.132146L10.7554 0.13566L10.7561 0.145258L10.7583 0.174545C10.7603 0.198481 10.7632 0.231169 10.7673 0.272027C10.7756 0.353714 10.7889 0.468246 10.8096 0.610951C10.8509 0.896053 10.922 1.29548 11.0427 1.7714C11.2831 2.71992 11.7254 3.99224 12.5363 5.27172C13.2904 6.46169 14.3496 7.63349 15.8172 8.55655H4V8.55664H0V10.5566H15.8171C14.3495 11.4797 13.2904 12.6514 12.5363 13.8414C11.7254 15.1209 11.2831 16.3932 11.0427 17.3417C10.922 17.8176 10.8509 18.217 10.8096 18.5021C10.7889 18.6448 10.7756 18.7594 10.7673 18.8411C10.7632 18.8819 10.7603 18.9146 10.7583 18.9385L10.7561 18.9678L10.7554 18.9774L10.7552 18.9809L10.7551 18.9824C10.755 18.983 10.755 18.9836 11.753 19.0469C12.751 19.1101 12.7509 19.1107 12.7509 19.1112L12.7517 19.1016C12.7526 19.0902 12.7543 19.0704 12.7571 19.0429C12.7627 18.9877 12.7726 18.9016 12.7889 18.7889C12.8216 18.5632 12.88 18.2329 12.9813 17.8332C13.1849 17.0304 13.5566 15.9676 14.2256 14.912C15.5305 12.853 18.0306 10.7065 23 10.7065V10.5565V10.4066V8.7065V8.55655V8.4066C18.0306 8.4066 15.5305 6.26011 14.2256 4.2011C13.5566 3.14548 13.1849 2.08271 12.9813 1.27991C12.88 0.880173 12.8216 0.549879 12.7889 0.324179C12.7726 0.211484 12.7627 0.125344 12.7571 0.0702082C12.7543 0.0426554 12.7526 0.0228949 12.7517 0.0114857L12.7509 0.00194231C12.7509 0.00242586 12.751 0.00294492 11.753 0.0662209ZM12.7508 0.000184126C12.7508 -0.000182972 12.7508 -1.7198e-07 12.7508 0.000723771L12.7508 0.000184126Z" fill="#1C66FF"/>
</svg>
