<svg width="41" height="42" viewBox="0 0 41 42" fill="none" xmlns="http://www.w3.org/2000/svg">
<path d="M6.83911 26.2664H7.58911H6.83911ZM11.5118 31.7349L11.6148 30.992H11.6148L11.5118 31.7349ZM28.9284 31.7349L28.8254 30.992L28.9284 31.7349ZM32.8036 23.3633L33.4477 22.9792L32.8036 23.3633ZM7.63666 23.3634L6.9925 22.9792L7.63666 23.3634ZM10.5626 14.6428C10.5626 9.30915 14.8864 4.98535 20.2201 4.98535V3.48535C14.058 3.48535 9.06261 8.48072 9.06261 14.6428H10.5626ZM10.5626 18.2208V14.6428H9.06261V18.2208H10.5626ZM7.58911 26.2664C7.58911 25.3446 7.84162 24.484 8.28081 23.7475L6.9925 22.9792C6.41861 23.9416 6.08911 25.0667 6.08911 26.2664H7.58911ZM11.6148 30.992C9.28826 30.6694 7.58911 28.6503 7.58911 26.2664H6.08911C6.08911 29.3638 8.30608 32.0475 11.4088 32.4778L11.6148 30.992ZM20.2201 31.7346C17.6306 31.7346 14.3046 31.3649 11.6148 30.992L11.4088 32.4778C14.1107 32.8524 17.5218 33.2346 20.2201 33.2346V31.7346ZM28.8254 30.992C26.1357 31.3649 22.8097 31.7346 20.2201 31.7346V33.2346C22.9184 33.2346 26.3295 32.8524 29.0315 32.4778L28.8254 30.992ZM32.8512 26.2664C32.8512 28.6503 31.152 30.6694 28.8254 30.992L29.0315 32.4778C32.1342 32.0475 34.3512 29.3638 34.3512 26.2664H32.8512ZM32.1594 23.7475C32.5986 24.4839 32.8512 25.3445 32.8512 26.2664H34.3512C34.3512 25.0666 34.0216 23.9415 33.4477 22.9792L32.1594 23.7475ZM29.8775 14.6428V18.2207H31.3775V14.6428H29.8775ZM20.2201 4.98535C25.5537 4.98535 29.8775 9.30915 29.8775 14.6428H31.3775C31.3775 8.48072 26.3822 3.48535 20.2201 3.48535V4.98535ZM33.4477 22.9792C32.9388 22.1258 32.4324 21.3723 32.0252 20.5566C31.6279 19.7606 31.3775 18.9987 31.3775 18.2207H29.8775C29.8775 19.324 30.2334 20.3255 30.6832 21.2265C31.1231 22.1079 31.7047 22.985 32.1594 23.7475L33.4477 22.9792ZM9.06261 18.2208C9.06261 18.9988 8.81227 19.7607 8.41494 20.5567C8.00778 21.3724 7.5014 22.1259 6.9925 22.9792L8.28081 23.7475C8.73551 22.9851 9.31712 22.1079 9.75703 21.2266C10.2068 20.3256 10.5626 19.3241 10.5626 18.2208H9.06261Z" fill="#2C2C2C"/>
<path d="M23.937 36.4376C23.1379 37.6395 21.7715 38.4315 20.2201 38.4315C18.6686 38.4315 17.3022 37.6395 16.5031 36.4376" stroke="#2C2C2C" stroke-width="1.5" stroke-linecap="round"/>
</svg>
